<svg width="26" height="30" viewBox="0 0 26 30" fill="none" xmlns="http://www.w3.org/2000/svg">
<path d="M25.0889 3C25.09 3.00372 25.2881 3.67193 25.0889 6C24.1877 16.5291 23.1565 20 12.5889 30C2.02124 20 0.990077 16.5291 0.0888672 6C-0.110957 3.66539 0.0888672 3 0.0888672 3L12.5889 0L25.0889 3ZM16.5889 7C15.2082 7 14.0889 8.11929 14.0889 9.5C14.0889 9.82107 14.1515 10.1272 14.2617 10.4092L11.1484 12.4238C11.1504 12.4261 11.1524 12.4284 11.1543 12.4307C10.4206 11.5562 9.31973 11 8.08887 11C5.87973 11 4.08887 12.7909 4.08887 15C4.08887 17.2091 5.87973 19 8.08887 19C9.26249 19 10.3181 18.4946 11.0498 17.6895L11.1484 17.5752L14.2617 19.5898C14.2626 19.5875 14.2637 19.5853 14.2646 19.583C14.1525 19.8671 14.0889 20.176 14.0889 20.5C14.0889 21.8807 15.2082 23 16.5889 23C17.9696 23 19.0889 21.8807 19.0889 20.5C19.0889 19.1193 17.9696 18 16.5889 18C15.8866 18 15.253 18.2906 14.7988 18.7568C14.8009 18.7547 14.8026 18.7521 14.8047 18.75L11.6924 16.7363C11.9459 16.2111 12.0889 15.6223 12.0889 15C12.0889 14.3774 11.9462 13.7881 11.6924 13.2627L14.8047 11.249C15.2584 11.7118 15.8896 12 16.5889 12C17.9696 12 19.0889 10.8807 19.0889 9.5C19.0889 8.11931 17.9696 7.00003 16.5889 7ZM16.5889 18.7002C17.583 18.7002 18.3887 19.5059 18.3887 20.5C18.3887 21.4941 17.583 22.2998 16.5889 22.2998C15.5948 22.2998 14.7891 21.4941 14.7891 20.5C14.7891 19.5059 15.5948 18.7002 16.5889 18.7002ZM14.627 18.9541C14.6332 18.9462 14.6382 18.9375 14.6445 18.9297C14.6382 18.9375 14.6332 18.9462 14.627 18.9541ZM8.08887 12C9.74569 12 11.0889 13.3432 11.0889 15C11.0889 16.6568 9.74569 18 8.08887 18C6.43201 18 5.08887 16.6569 5.08887 15C5.08887 13.3431 6.43201 12 8.08887 12ZM11.457 17.1553C11.4501 17.1661 11.4426 17.1767 11.4355 17.1875C11.4426 17.1767 11.4501 17.1661 11.457 17.1553ZM11.5625 13.0176C11.569 13.029 11.5756 13.0403 11.582 13.0518C11.5756 13.0403 11.569 13.029 11.5625 13.0176ZM11.4268 12.7979C11.4401 12.818 11.4538 12.838 11.4668 12.8584C11.4538 12.838 11.4401 12.818 11.4268 12.7979ZM16.5889 7.7002C17.583 7.70023 18.3887 8.50591 18.3887 9.5C18.3887 10.4941 17.583 11.2998 16.5889 11.2998C15.5948 11.2998 14.7891 10.4941 14.7891 9.5C14.7891 8.50589 15.5948 7.7002 16.5889 7.7002Z" fill="#128FC8"/>
</svg>
